<svg xmlns="http://www.w3.org/2000/svg" width="131.235" height="25.491" viewBox="0 0 131.235 25.491">
  <g id="Group_240" data-name="Group 240" transform="translate(-575 -484.08)">
    <g id="Group_179" data-name="Group 179" transform="translate(575.271 484.08)">
      <g id="Group_178" data-name="Group 178" transform="translate(0 0)">
        <g id="Group_177" data-name="Group 177">
          <path id="Path_390" data-name="Path 390" d="M580.928,484.08a23.422,23.422,0,0,1,6.776.706c3.872,1.2,5.858,3.951,5.858,7.455a6.968,6.968,0,0,1-3,6.138,13.545,13.545,0,0,1-7.868,2.07h-6.056a1.974,1.974,0,0,0,.844-.4h-.025c.2-.165.347-.8.422-1.928q.149-1.729.149-2.893v-6.7c0-2.422-.2-3.763-.571-4.068a1.4,1.4,0,0,0-.745-.376Zm1.737,16.086c5.262,0,7.992-2.352,7.992-7.9,0-2.657-.769-4.657-2.333-5.973a9.3,9.3,0,0,0-6.255-1.975,11.01,11.01,0,0,0-1.613.094V497.25a3.038,3.038,0,0,1-.025.353c0,.447.025.517.05.964a1.651,1.651,0,0,0,1.142,1.576C581.871,500.166,582.219,500.166,582.666,500.166Z" transform="translate(-576.634 -484.08)"/>
          <path id="Path_391" data-name="Path 391" d="M682.693,490.746c1.39-.117,2.73-.188,4.021-.188l.025,4.421-.025,3.269a7.445,7.445,0,0,0,.323,2.94,1.181,1.181,0,0,0,.893.564h-4.766a1.252,1.252,0,0,0,.918-.588,8.3,8.3,0,0,0,.372-3.222v-3.457a10.729,10.729,0,0,0-.1-1.717,4.316,4.316,0,0,0-.3-1.176A1.993,1.993,0,0,0,682.693,490.746Zm4.219-3.786a1.493,1.493,0,0,1-2.979,0,1.389,1.389,0,0,1,1.464-1.317A1.4,1.4,0,0,1,686.912,486.96Z" transform="translate(-665.119 -485.384)"/>
          <path id="Path_392" data-name="Path 392" d="M732.176,516.044a3.283,3.283,0,0,0-1.191-2.023,3.8,3.8,0,0,0-2.532-.847,2.363,2.363,0,0,0-2.408,2.422c0,1.058,1.117,1.787,2.507,2.258,2.01.635,4.666,1.458,4.617,3.786a2.824,2.824,0,0,1-1.564,2.54,6.851,6.851,0,0,1-3.475.893,7.29,7.29,0,0,1-3.822-1.058c-.025-.235-.025-.588-.025-1.058,0-.493,0-.846.025-1.105l.174-.023a3.577,3.577,0,0,0,3.649,2.916c1.762,0,3.053-.894,3.028-2.493-.025-1.105-1.142-1.811-2.532-2.258-1.986-.659-4.617-1.482-4.592-3.9a2.526,2.526,0,0,1,1.514-2.4,7.145,7.145,0,0,1,3.4-.8,10.643,10.643,0,0,1,3.45.729l.025.541c0,.423-.025,1.035-.1,1.858Z" transform="translate(-699.611 -508.119)"/>
          <path id="Path_393" data-name="Path 393" d="M780.81,497.235a3.364,3.364,0,0,0,3-1.27,5.045,5.045,0,0,0,.72-2.516H785.7v3.669h3.326v.353H785.7v9.054c0,.917.348,1.364,1.018,1.364a2.073,2.073,0,0,0,1.291-.518,2.1,2.1,0,0,0,.819-1.105l.2.165a4.972,4.972,0,0,1-1.365,1.623,3.109,3.109,0,0,1-1.837.447,2.766,2.766,0,0,1-1.713-.612,1.834,1.834,0,0,1-.745-1.482V497.47H780.81Z" transform="translate(-746.978 -491.897)"/>
          <path id="Path_394" data-name="Path 394" d="M832.34,515.493c1.465-.117,2.8-.188,4.046-.188,0,1.246,0,2.187.025,2.8a3.9,3.9,0,0,1,1.34-1.9,3.459,3.459,0,0,1,2.234-.8c.794,0,1.663.259,1.663.894a.745.745,0,0,1-.72.8,1.882,1.882,0,0,1-1.043-.4,1.889,1.889,0,0,0-1.067-.4h-.174c-.819.07-1.464.894-1.787,2a11.967,11.967,0,0,0-.472,2.7c-.05,2.869.05,4.515.323,4.939a1.277,1.277,0,0,0,.894.564h-4.766a1.207,1.207,0,0,0,.918-.588,4.621,4.621,0,0,0,.347-2.069c.025-.541.025-.988.025-1.364a13.3,13.3,0,0,0,0-1.411v-.893c0-2.187-.124-3.457-.4-3.834A2.043,2.043,0,0,0,832.34,515.493Z" transform="translate(-789.969 -510.131)"/>
          <path id="Path_395" data-name="Path 395" d="M890.912,490.746c1.39-.117,2.73-.188,4.021-.188l.025,4.421-.025,3.269a7.448,7.448,0,0,0,.323,2.94,1.182,1.182,0,0,0,.893.564h-4.766a1.253,1.253,0,0,0,.919-.588,8.3,8.3,0,0,0,.372-3.222v-3.457a10.752,10.752,0,0,0-.1-1.717,4.322,4.322,0,0,0-.3-1.176A1.993,1.993,0,0,0,890.912,490.746Zm4.22-3.786a1.493,1.493,0,0,1-2.979,0,1.389,1.389,0,0,1,1.464-1.317A1.4,1.4,0,0,1,895.132,486.96Z" transform="translate(-838.836 -485.384)"/>
          <path id="Path_396" data-name="Path 396" d="M927.612,497.235a3.364,3.364,0,0,0,3-1.27,5.045,5.045,0,0,0,.72-2.516H932.5v3.669h3.326v.353H932.5v9.054c0,.917.348,1.364,1.018,1.364a2.072,2.072,0,0,0,1.291-.518,2.1,2.1,0,0,0,.819-1.105l.2.165a4.971,4.971,0,0,1-1.365,1.623,3.109,3.109,0,0,1-1.837.447,2.766,2.766,0,0,1-1.713-.612,1.834,1.834,0,0,1-.745-1.482V497.47h-2.557Z" transform="translate(-869.455 -491.897)"/>
          <path id="Path_397" data-name="Path 397" d="M989.87,516.9a6.086,6.086,0,0,1,.05,8.255,5.582,5.582,0,0,1-4.17,1.576,5.757,5.757,0,0,1-4.244-1.576,5.594,5.594,0,0,1-1.613-4.139,5.5,5.5,0,0,1,5.734-5.714A5.852,5.852,0,0,1,989.87,516.9Zm-1.315.729a2.9,2.9,0,0,0-2.9-2.14c-2.234,0-3.351,1.834-3.351,5.527a10.736,10.736,0,0,0,.521,3.41,2.914,2.914,0,0,0,2.929,2.117q3.351,0,3.351-5.5A10.137,10.137,0,0,0,988.555,517.633Z" transform="translate(-913.072 -510.131)"/>
          <path id="Path_398" data-name="Path 398" d="M1058.508,484.08c-.4.117-.6.329-.6.682,0,.729,1.663,3.622,5.014,8.725.2-.47.67-1.364,1.39-2.658.745-1.293,1.39-2.493,1.911-3.574a6.521,6.521,0,0,0,.819-2.281.889.889,0,0,0-.72-.894h3.525a3.709,3.709,0,0,0-1.042.306,17.747,17.747,0,0,0-2.457,3.669c-.472.87-.943,1.717-1.365,2.54l-1.142,2.234-.546,1.058v1.34c0,.118,0,.376-.025.753,0,.729,0,1.082.025,1.834.124,1.27.521,2.446,1.787,2.634H1059.3a1.883,1.883,0,0,0,1.44-1.6,8.365,8.365,0,0,0,.223-2.211v-2.493c-.4-.588-.993-1.552-1.762-2.846l-1.291-2.211-.4-.612-.546-.87c-.124-.212-.323-.494-.6-.87a13.468,13.468,0,0,0-1.365-1.67,2.839,2.839,0,0,0-1.365-.964h.025l-.074-.024Z" transform="translate(-974.561 -484.08)"/>
          <path id="Path_399" data-name="Path 399" d="M1140.821,519.726a8.609,8.609,0,0,1,2.259.329v-.87a5.792,5.792,0,0,0-.4-2.446,2.183,2.183,0,0,0-2.234-1.27,2.142,2.142,0,0,0-2.06,1.341.835.835,0,0,1-.124.211.616.616,0,0,1-.149.235l-.224.353a.747.747,0,0,1-.695.306c-.521,0-.77-.235-.77-.706a1.309,1.309,0,0,1,.844-1.129,7.222,7.222,0,0,1,3.425-.776,8.749,8.749,0,0,1,1.961.235,3.856,3.856,0,0,1,1.613.682,3.515,3.515,0,0,1,1.067,2.728l-.025,4.233a7.543,7.543,0,0,0,.3,2.751,1.278,1.278,0,0,0,.894.564h-5.485a11.5,11.5,0,0,1-3.773-.517,2.787,2.787,0,0,1-2.01-2.8C1135.236,521,1137.445,519.726,1140.821,519.726Zm-3.4,3.457a3.3,3.3,0,0,0,.6,2.164c.5.658,1.514,1.011,3,1.011a2.426,2.426,0,0,0,1.613-.353l.05-.094a7.719,7.719,0,0,0,.348-2.893l.025-2.822a8.235,8.235,0,0,0-1.911-.282C1137.991,519.914,1137.42,521.607,1137.42,523.183Z" transform="translate(-1042.675 -510.131)"/>
          <path id="Path_400" data-name="Path 400" d="M1212.874,519.726a8.61,8.61,0,0,1,2.259.329v-.87a5.792,5.792,0,0,0-.4-2.446,2.182,2.182,0,0,0-2.234-1.27,2.142,2.142,0,0,0-2.06,1.341.835.835,0,0,1-.124.211.618.618,0,0,1-.149.235l-.224.353a.748.748,0,0,1-.695.306c-.521,0-.77-.235-.77-.706a1.309,1.309,0,0,1,.844-1.129,7.222,7.222,0,0,1,3.425-.776,8.75,8.75,0,0,1,1.961.235,3.854,3.854,0,0,1,1.613.682,3.515,3.515,0,0,1,1.068,2.728l-.025,4.233a7.536,7.536,0,0,0,.3,2.751,1.277,1.277,0,0,0,.893.564h-5.485a11.5,11.5,0,0,1-3.773-.517,2.787,2.787,0,0,1-2.01-2.8C1207.289,521,1209.5,519.726,1212.874,519.726Zm-3.4,3.457a3.3,3.3,0,0,0,.6,2.164c.5.658,1.514,1.011,3,1.011a2.426,2.426,0,0,0,1.613-.353l.049-.094a7.719,7.719,0,0,0,.348-2.893l.025-2.822a8.233,8.233,0,0,0-1.911-.282C1210.044,519.914,1209.473,521.607,1209.473,523.183Z" transform="translate(-1102.789 -510.131)"/>
          <path id="Path_401" data-name="Path 401" d="M1275.6,527.8a2.852,2.852,0,0,0,1.613-.847,22.158,22.158,0,0,0,2.16-2.281l1.464-1.693c-.174-.259-.5-.776-.943-1.529-.422-.753-.819-1.388-1.167-1.928a9.126,9.126,0,0,0-1.291-1.6,3.883,3.883,0,0,0-1.514-1.058h4.492a.518.518,0,0,0-.447.541,3.276,3.276,0,0,0,.471,1.058l1.117,1.858.745,1.2.646-.752c.4-.447.72-.847.993-1.176a7.467,7.467,0,0,0,1.34-2.023c.074-.306-.248-.611-.62-.705h2.879c-.3.07-.521.117-.645.164a9.9,9.9,0,0,0-2.085,1.976c-1.117,1.246-1.936,2.164-2.408,2.751l1.067,1.67a18.275,18.275,0,0,0,2.854,3.857,3.422,3.422,0,0,0,1.117.517h-4.791a.687.687,0,0,0,.472-.729,6.235,6.235,0,0,0-.918-1.834,19.285,19.285,0,0,0-1.266-2.023,19.606,19.606,0,0,0-3.078,3.857c-.124.282.124.611.5.729Z" transform="translate(-1159.779 -511.433)"/>
          <path id="Path_402" data-name="Path 402" d="M1353.49,573.683a1.1,1.1,0,0,1-1.216-1.082c-.124-1.364,2.557-1.364,2.432,0A1.118,1.118,0,0,1,1353.49,573.683Z" transform="translate(-1223.746 -557.079)"/>
        </g>
      </g>
    </g>
    <g id="Group_181" data-name="Group 181" transform="translate(575 505.397)">
      <g id="Group_180" data-name="Group 180" transform="translate(0 0)">
        <path id="Path_403" data-name="Path 403" d="M577.578,615.774c0-1.269-2.375-.31-2.375-1.918a1.213,1.213,0,0,1,1.371-1.129,1.268,1.268,0,0,1,1.382,1.3h-.4a.905.905,0,0,0-.976-.925c-.6,0-.965.293-.965.739,0,1.168,2.38.294,2.38,1.907,0,.694-.6,1.151-1.5,1.151A1.316,1.316,0,0,1,575,615.6h.406a.976.976,0,0,0,1.1.919C577.161,616.524,577.578,616.265,577.578,615.774Z" transform="translate(-575 -612.728)"/>
        <path id="Path_404" data-name="Path 404" d="M602.16,617.246h-2.691v-4h2.691v.389h-2.279v1.388h2.16v.389h-2.16v1.45h2.279Z" transform="translate(-595.414 -613.156)"/>
        <path id="Path_405" data-name="Path 405" d="M622.529,613.241l-1.613,4h-.44l-1.608-4h.463l1.371,3.48h.011l1.365-3.48Z" transform="translate(-611.599 -613.156)"/>
        <path id="Path_406" data-name="Path 406" d="M648.275,617.246h-2.691v-4h2.691v.389H646v1.388h2.161v.389H646v1.45h2.279Z" transform="translate(-633.888 -613.156)"/>
        <path id="Path_407" data-name="Path 407" d="M668.492,617.246h-.412v-4h.434l2.335,3.35v-3.35h.412v4h-.434l-2.335-3.345Z" transform="translate(-652.657 -613.156)"/>
        <path id="Path_408" data-name="Path 408" d="M705.2,615.774c0-1.269-2.375-.31-2.375-1.918a1.213,1.213,0,0,1,1.371-1.129,1.268,1.268,0,0,1,1.382,1.3h-.4a.905.905,0,0,0-.976-.925c-.6,0-.964.293-.964.739,0,1.168,2.38.294,2.38,1.907,0,.694-.6,1.151-1.5,1.151a1.316,1.316,0,0,1-1.495-1.292h.406a.976.976,0,0,0,1.1.919C704.784,616.524,705.2,616.265,705.2,615.774Z" transform="translate(-681.477 -612.728)"/>
        <path id="Path_409" data-name="Path 409" d="M729.784,617.246h-2.691v-4h2.691v.389h-2.279v1.388h2.16v.389h-2.16v1.45h2.279Z" transform="translate(-701.891 -613.156)"/>
        <path id="Path_410" data-name="Path 410" d="M750,617.246h-.412v-4h.435l2.335,3.35v-3.35h.412v4h-.434L750,613.9Z" transform="translate(-720.659 -613.156)"/>
        <path id="Path_411" data-name="Path 411" d="M777.011,615.774c0-1.269-2.375-.31-2.375-1.918a1.213,1.213,0,0,1,1.371-1.129,1.268,1.268,0,0,1,1.382,1.3h-.4a.905.905,0,0,0-.976-.925c-.6,0-.964.293-.964.739,0,1.168,2.38.294,2.38,1.907,0,.694-.6,1.151-1.5,1.151a1.316,1.316,0,0,1-1.495-1.292h.406a.976.976,0,0,0,1.1.919C776.593,616.524,777.011,616.265,777.011,615.774Z" transform="translate(-741.387 -612.728)"/>
        <path id="Path_412" data-name="Path 412" d="M801.594,617.246H798.9v-4h2.691v.389h-2.279v1.388h2.16v.389h-2.16v1.45h2.279Z" transform="translate(-761.802 -613.156)"/>
        <path id="Path_413" data-name="Path 413" d="M821.9,615.774c0-1.269-2.375-.31-2.375-1.918a1.213,1.213,0,0,1,1.371-1.129,1.267,1.267,0,0,1,1.382,1.3h-.4a.906.906,0,0,0-.976-.925c-.6,0-.965.293-.965.739,0,1.168,2.38.294,2.38,1.907,0,.694-.6,1.151-1.5,1.151a1.316,1.316,0,0,1-1.495-1.292h.406a.976.976,0,0,0,1.1.919C821.482,616.524,821.9,616.265,821.9,615.774Z" transform="translate(-778.838 -612.728)"/>
        <path id="Path_414" data-name="Path 414" d="M853.994,615.774c0-1.269-2.375-.31-2.375-1.918a1.213,1.213,0,0,1,1.371-1.129,1.268,1.268,0,0,1,1.382,1.3h-.4A.905.905,0,0,0,853,613.1c-.6,0-.964.293-.964.739,0,1.168,2.38.294,2.38,1.907,0,.694-.6,1.151-1.5,1.151a1.316,1.316,0,0,1-1.495-1.292h.406a.976.976,0,0,0,1.1.919C853.577,616.524,853.994,616.265,853.994,615.774Z" transform="translate(-805.614 -612.728)"/>
        <path id="Path_415" data-name="Path 415" d="M876.3,617.246h-.412v-4h1.557c.931,0,1.292.513,1.292,1.156s-.372,1.162-1.292,1.162H876.3Zm1.162-2.082c.575,0,.846-.288.846-.767s-.271-.761-.846-.761H876.3v1.528Z" transform="translate(-826.029 -613.156)"/>
        <path id="Path_416" data-name="Path 416" d="M893.107,617.246l1.647-4h.445l1.653,4H896.4l-.378-.937h-2.087l-.384.937Zm1.861-3.5-.891,2.183h1.788l-.885-2.183Z" transform="translate(-840.397 -613.156)"/>
        <path id="Path_417" data-name="Path 417" d="M919.693,612.728a1.836,1.836,0,0,1,1.89,1.495h-.434a1.421,1.421,0,0,0-1.456-1.106,1.7,1.7,0,0,0,0,3.4,1.42,1.42,0,0,0,1.456-1.106h.434a1.836,1.836,0,0,1-1.89,1.495,2.09,2.09,0,0,1,0-4.174Z" transform="translate(-860.925 -612.728)"/>
        <path id="Path_418" data-name="Path 418" d="M949.5,617.246h-2.691v-4H949.5v.389h-2.279v1.388h2.16v.389h-2.16v1.45H949.5Z" transform="translate(-885.202 -613.156)"/>
        <path id="Path_419" data-name="Path 419" d="M969.809,615.774c0-1.269-2.375-.31-2.375-1.918a1.213,1.213,0,0,1,1.371-1.129,1.268,1.268,0,0,1,1.382,1.3h-.4a.906.906,0,0,0-.976-.925c-.6,0-.965.293-.965.739,0,1.168,2.38.294,2.38,1.907,0,.694-.6,1.151-1.5,1.151a1.316,1.316,0,0,1-1.495-1.292h.406a.976.976,0,0,0,1.1.919C969.392,616.524,969.809,616.265,969.809,615.774Z" transform="translate(-902.238 -612.728)"/>
      </g>
    </g>
  </g>
</svg>
