<svg xmlns="http://www.w3.org/2000/svg" width="26.781" height="26.781" viewBox="0 0 26.781 26.781">
  <g id="Group_263" data-name="Group 263" transform="translate(-1829.117 -78.885)">
    <path id="Path_469" data-name="Path 469" d="M96.769,6.348a1.57,1.57,0,1,0,1.57,1.57,1.57,1.57,0,0,0-1.57-1.57" transform="translate(1752.828 77.319)" fill="#fff"/>
    <path id="Path_467" data-name="Path 467" d="M85.933,9.008a6.6,6.6,0,1,0,6.6,6.6,6.6,6.6,0,0,0-6.6-6.6m0,10.82A4.225,4.225,0,1,1,90.157,15.6a4.23,4.23,0,0,1-4.224,4.224" transform="translate(1756.685 76.672)" fill="#fff"/>
    <path id="Path_468" data-name="Path 468" d="M88.952,26.811H78.26a8.053,8.053,0,0,1-8.044-8.045V8.075A8.053,8.053,0,0,1,78.26.03H88.952A8.054,8.054,0,0,1,97,8.075V18.767a8.054,8.054,0,0,1-8.045,8.045M78.26,2.55a5.531,5.531,0,0,0-5.525,5.525V18.767a5.531,5.531,0,0,0,5.525,5.525H88.952a5.531,5.531,0,0,0,5.525-5.525V8.075A5.531,5.531,0,0,0,88.952,2.55Z" transform="translate(1758.901 78.855)" fill="#fff"/>
  </g>
</svg>
