<svg xmlns="http://www.w3.org/2000/svg" width="22.382" height="25.683" viewBox="0 0 22.382 25.683">
  <g id="Group_210" data-name="Group 210" transform="translate(0 0)">
    <path id="Path_458" data-name="Path 458" d="M-875.771,783.2a6.154,6.154,0,0,1-4.841-5.45v-.566h-4.423v17.554a3.718,3.718,0,0,1-3.731,3.705,3.718,3.718,0,0,1-2.946-1.467h0a3.717,3.717,0,0,1,.711-5.208,3.717,3.717,0,0,1,3.376-.582v-4.494a8.126,8.126,0,0,0-9.162,6.937,8.126,8.126,0,0,0,2.237,6.791,8.128,8.128,0,0,0,11.493.132,8.128,8.128,0,0,0,2.447-5.812v-8.97a10.5,10.5,0,0,0,6.128,1.959v-4.4A6.2,6.2,0,0,1-875.771,783.2Z" transform="translate(896.865 -777.184)" fill="#fff"/>
  </g>
</svg>
