<svg xmlns="http://www.w3.org/2000/svg" width="19.442" height="21.689" viewBox="0 0 19.442 21.689">
  <g id="Group_262" data-name="Group 262" transform="translate(3198.273 304.39)">
    <path id="Path_429" data-name="Path 429" d="M-3198.273-299.094a7.153,7.153,0,0,1,1.632-4.4,2.026,2.026,0,0,1,1.209-.677,10.105,10.105,0,0,1,1.331-.216.57.57,0,0,1,.407.22,3.5,3.5,0,0,1,.37.627c.627,1.2,1.243,2.412,1.877,3.609.348.656.351.96-.141,1.5-.383.421-.812.79-1.217,1.185-.176.171-.353.342-.517.527a.974.974,0,0,0-.16,1.385c.289.57.587,1.136.9,1.69a14.192,14.192,0,0,0,4.814,5.072c.356.225.713.45,1.075.663a.6.6,0,0,0,.834-.165c.339-.408.658-.836.989-1.252.235-.295.461-.6.719-.871.483-.5.72-.507,1.289-.13.961.636,1.926,1.263,2.891,1.892.27.177.545.344.814.524a.723.723,0,0,1,.322.7,6.084,6.084,0,0,1-.461,2.134,2.679,2.679,0,0,1-.69.88,5.307,5.307,0,0,1-3.759,1.493,6.491,6.491,0,0,1-2.2-.573,19.637,19.637,0,0,1-3.175-1.485,20.169,20.169,0,0,1-4.109-3.643,20.281,20.281,0,0,1-3.162-4.472,22.97,22.97,0,0,1-1.789-5.272A7.506,7.506,0,0,1-3198.273-299.094Z" fill="#fff"/>
  </g>
</svg>
