<svg xmlns="http://www.w3.org/2000/svg" width="113.387" height="112.635" viewBox="0 0 113.387 112.635">
  <g id="Grupo_271" data-name="Grupo 271" transform="translate(-390.06 -2651.5)">
    <path id="Trazado_475" data-name="Trazado 475" d="M204.549,49.448c.02.426.224.949,1.1,1.018a3.052,3.052,0,0,0,1.224-.285,10.393,10.393,0,0,0,1.255-.664,13.157,13.157,0,0,0,1.231-.863l.8-.632c-.064.454-.105.909-.125,1.358-.025.571-.025,1.156,0,1.74a12.024,12.024,0,0,0,.166,1.435,4.084,4.084,0,0,0,.532,1.426c.069.069.126.132.171.187a.313.313,0,0,0,.161.092c-.246.143-.489.292-.725.447a11.363,11.363,0,0,0-1.382,1.069,3.431,3.431,0,0,0-.911,1.274,1.112,1.112,0,0,0,.342,1.379,2.3,2.3,0,0,0,1.408.391q.177,0,.368-.016a10.607,10.607,0,0,0,2.323-.478,21.666,21.666,0,0,0,2.341-.9,19.631,19.631,0,0,0,1.757-.879,9.146,9.146,0,0,0,2.586-2.162,16.587,16.587,0,0,0,1.612-2.335c1.564-.211,3.173-.378,4.783-.5,1.649-.121,3.407-.194,5.221-.217a2.031,2.031,0,0,0,.294-.02A.3.3,0,0,0,231.34,51c0-.109-.044-.364-.454-.391-.208-.011-.409-.018-.609-.018h0l-4.6.145c-1.459.046-2.957.169-4.457.366.12-.3.252-.676.393-1.11a10.323,10.323,0,0,0,.406-1.787,7.383,7.383,0,0,0,.019-1.875,3.468,3.468,0,0,0-.615-1.641,1.23,1.23,0,0,0-1.483-.337,5.437,5.437,0,0,0-1.571.972c-.51.437-.989.867-1.415,1.269q-.616.508-1.287,1.033a6.781,6.781,0,0,1-1.125.719,3.791,3.791,0,0,1,.184-.783c.121-.335.24-.706.361-1.121a2.679,2.679,0,0,0,.115-.346.264.264,0,0,1,.123-.144c.2-.046.22-.363.227-.5.011-.245.018-.429.018-.552a.966.966,0,0,0-.021-.194.325.325,0,0,0-.294-.24.406.406,0,0,0-.482.113,1.3,1.3,0,0,0-.224.365c-.121.267-.247.572-.385.936s-.259.72-.367,1.083c-.114.381-.2.724-.274,1.046a2.74,2.74,0,0,0-.076.87.719.719,0,0,0,.345.548.805.805,0,0,0,.645.09,4.62,4.62,0,0,0,1.713-.975c.617-.509,1.249-1.06,1.872-1.636q.475-.4.913-.8a5.383,5.383,0,0,1,.989-.706.758.758,0,0,1,.569-.131.531.531,0,0,1,.3.3,4.7,4.7,0,0,1,.281,1.407,6.447,6.447,0,0,1-.107,1.49,8.922,8.922,0,0,1-.429,1.5c-.182.476-.375.924-.576,1.332-1.14.193-2.255.428-3.314.7a21.982,21.982,0,0,0-3.256,1.115c-.468.2-.972.431-1.5.694-.154.078-.3.163-.456.245a.3.3,0,0,0-.011-.25,1.962,1.962,0,0,0-.126-.217,3.448,3.448,0,0,1-.349-1.148c-.049-.411-.1-.857-.144-1.335a14.362,14.362,0,0,1,.252-3.68.556.556,0,0,1,.243-.412,38.6,38.6,0,0,0,2.919-3.028,31.635,31.635,0,0,0,2.6-3.474c.171-.295.362-.645.567-1.043a9.555,9.555,0,0,0,.535-1.255,7.073,7.073,0,0,0,.316-1.318,3.408,3.408,0,0,0-.058-1.3.884.884,0,0,0-.508-.628,1.114,1.114,0,0,0-.815.015A4.381,4.381,0,0,0,214.9,36.5a18.2,18.2,0,0,0-1.7,2.6,29.027,29.027,0,0,0-1.388,2.921c-.355.872-.642,1.633-.855,2.268a2.881,2.881,0,0,0-.625-.44,1.611,1.611,0,0,0-1.034-.087,3.562,3.562,0,0,0-1.652.775,8.865,8.865,0,0,0-1.516,1.516A9.956,9.956,0,0,0,205,47.83a3.786,3.786,0,0,0-.452,1.619m14.977,2.8a11.1,11.1,0,0,1-1.384,1.833,10.655,10.655,0,0,1-2.035,1.661c-.334.191-.828.432-1.511.738a22.266,22.266,0,0,1-2.111.812,15.957,15.957,0,0,1-2.087.539,2.315,2.315,0,0,1-1.416-.074.318.318,0,0,1-.1-.384,1.761,1.761,0,0,1,.437-.683,8.066,8.066,0,0,1,.8-.731,11.566,11.566,0,0,1,.95-.68q.508-.325.934-.576a25.331,25.331,0,0,1,3.755-1.606,18.865,18.865,0,0,1,3.766-.849m-13.707-3a6.8,6.8,0,0,1,1.042-1.985,11.311,11.311,0,0,1,1.608-1.771c.118-.095.266-.2.443-.319a1.993,1.993,0,0,1,.539-.252,1.17,1.17,0,0,1,.33-.051.921.921,0,0,1,.179.018.439.439,0,0,1,.309.262,1.565,1.565,0,0,1,.1.246.8.8,0,0,0,.188.3,1.535,1.535,0,0,0-.067.329.626.626,0,0,1-.149.318c-.21.187-.522.447-.957.794-.413.331-.868.665-1.352.992a13.731,13.731,0,0,1-1.382.826,2.532,2.532,0,0,1-.83.288m5.819-4.161c.159-.529.39-1.174.692-1.927a33.263,33.263,0,0,1,1.429-3.092,20.612,20.612,0,0,1,1.712-2.759,3.964,3.964,0,0,1,1.7-1.466c.043-.024.068-.029.067-.03s.018.017.043.1a1.285,1.285,0,0,1,.061.714,6.662,6.662,0,0,1-.248,1.011,7.385,7.385,0,0,1-.463,1.1c-.194.375-.375.72-.538,1.024a26.328,26.328,0,0,1-2.276,3.034,28.709,28.709,0,0,1-2.176,2.285" transform="translate(205.036 2638.774)" fill="#2d2926"/>
    <path id="Trazado_476" data-name="Trazado 476" d="M234.274,54.4a1.088,1.088,0,0,0-.906.252,1.141,1.141,0,0,0-.4.917.862.862,0,0,0,.313.72.633.633,0,0,0,.395.14.785.785,0,0,0,.36-.1,1.075,1.075,0,0,0,.53-.358,1.46,1.46,0,0,0,.3-.586.841.841,0,0,0-.057-.683.756.756,0,0,0-.539-.307" transform="translate(194.672 2631.669)" fill="#2d2926"/>
    <path id="Trazado_477" data-name="Trazado 477" d="M230.136,0a56.318,56.318,0,1,0,56.318,56.318A56.381,56.381,0,0,0,230.136,0M184.424,85.907c-1.828-5.179-3.842-10.294-5.818-15.423,2.728,6.517,5.938,12.831,8.719,19.326.045.105.088.212.133.317q-1.614-2.034-3.034-4.22m6.621,8.3c-4.683-12.3-11.743-23.739-14.906-36.568h3.912c1.909,4.406,3.982,8.752,5.917,13.135,3.6,8.151,6.971,16.852,7.529,25.814q-1.264-1.151-2.452-2.381m4.379,4.054c-.186-9.332-3.524-18.414-7.2-26.905-1.988-4.592-4.162-9.124-6.172-13.717h4c1.87,5.158,3.673,10.349,6.023,15.327a45.459,45.459,0,0,0,10.192,14.425,101.244,101.244,0,0,1-6.317,11.295c-.175-.142-.351-.282-.524-.426m12.894-34.517q-1.918-3.063-3.87-6.1h1.858c.722,2.017,1.4,4.05,2.012,6.1m-.074-6.1h4.317q-1.044,3.434-2.1,6.884c-.664-2.324-1.41-4.617-2.219-6.884m.944,10.972c-1.4,4.414-2.878,8.8-4.541,13.1-1.026-8.391-4.2-16.414-7.957-24.071h5.572q3.507,5.458,6.926,10.972m-11.513-4.388c2.86,6.619,5.133,14,5.435,21.239a.344.344,0,0,0,.005.037c-.017.037-.032.076-.048.113-7.872-7.47-11.405-17.937-14.984-27.973h6.529c1.073,2.173,2.1,4.365,3.062,6.584m-.274,35.6-.014-.011c.072-.117.15-.231.222-.348-.067.12-.14.238-.208.358m26.77,10.634q-1.274-.139-2.531-.336c.848-.13,1.693-.273,2.531-.439Zm0-2.644c-2.59.536-5.25.827-7.86,1.193a54.066,54.066,0,0,1-9.761-3.6c1.362-.467,2.747-.876,4.158-1.21,4.441-1.051,8.985-1.546,13.464-2.4Zm0-7.885c-4.181.819-8.425,1.3-12.594,2.186a48.865,48.865,0,0,0-7.276,2.144q-.716-.387-1.418-.8l9.365-4.506c3.973-1.912,7.925-3.9,11.923-5.768Zm0-8.766c-3.574,1.662-7.1,3.431-10.648,5.138l-12.515,6.022q-.557-.353-1.1-.719A120.416,120.416,0,0,1,224.17,85.9Zm0-7.3a120.836,120.836,0,0,0-13.491,7.513,122.214,122.214,0,0,0-11.031,8.043q1.593-2.939,3.03-5.956a.966.966,0,0,0,.165-.123c5.032-4.558,11.617-6.6,17.684-9.365,1.266-.576,2.469-1.223,3.642-1.9Zm0-3.876c-1.044.637-2.123,1.233-3.248,1.774-4.724,2.272-9.757,3.982-14.27,6.6a112.205,112.205,0,0,1,10.993-10.853c2.11-1.811,4.294-3.526,6.525-5.179Zm0-9.947c-2.016,1.47-4,2.984-5.931,4.57a112.176,112.176,0,0,0-12.575,12.092q.706-1.733,1.365-3.494.706-1.888,1.4-3.786c6.048-3.038,10.977-7.62,15.739-12.364Zm0-5.592c-1.36,1.369-2.722,2.735-4.118,4.067a64.18,64.18,0,0,1-7.944,6.582l6.951-7.73c1.706-1.9,3.395-3.822,5.111-5.718Zm0-5.525c-1.617,1.764-3.2,3.56-4.8,5.336l-9.132,10.155c1.517-4.25,2.984-8.532,4.361-12.845q2.486-1.961,4.967-3.935h4.6Zm-8.12-.835c.066-.154.143-.3.212-.454h.36l-.572.454m8.12-2.3h-48.5a54.546,54.546,0,0,1,48.5-53.621Zm7.742,54.961c-.59.019-1.181.032-1.776.032q-2.078,0-4.119-.154V2q2.039-.153,4.119-.155c.595,0,1.186.013,1.776.032Zm7.74-.8a54.31,54.31,0,0,1-5.894.71V1.97a54.47,54.47,0,0,1,5.894.71Zm7.741-1.97a54.113,54.113,0,0,1-5.894,1.608V3.042a53.972,53.972,0,0,1,5.894,1.608Zm7.74-3.281a54.316,54.316,0,0,1-5.894,2.624V5.307a54.194,54.194,0,0,1,5.894,2.624Zm7.933-5.027a54.76,54.76,0,0,1-6.086,4.024V8.935a54.671,54.671,0,0,1,6.086,4.024ZM270.9,92.4a54.953,54.953,0,0,1-5.989,5.807V14.426a54.892,54.892,0,0,1,5.989,5.807Zm7.431-10.728a54.67,54.67,0,0,1-5.584,8.533V22.428a54.67,54.67,0,0,1,5.584,8.533Zm1.846-46.86a54.424,54.424,0,0,1,0,43.007Z" transform="translate(216.242 2651.5)" fill="#2d2926"/>
    <path id="Trazado_478" data-name="Trazado 478" d="M344.108,4.171a2.6,2.6,0,0,1,5.2,0,2.6,2.6,0,1,1-5.2,0m4.674,0a2.072,2.072,0,1,0-4.144,0,2.072,2.072,0,1,0,4.144,0m-1.516,1.28-.394-.807s-.1.01-.166.01h-.433v.8h-.492V2.9h.955c.718,0,1.063.355,1.063.875a.784.784,0,0,1-.453.758l.492.916Zm-.993-2.086V4.18h.531c.314,0,.492-.147.492-.4s-.178-.413-.492-.413Z" transform="translate(154.143 2650.926)" fill="#2d2926"/>
  </g>
</svg>
